<?xml version="1.0" encoding="UTF-8" standalone="no"?>
<!-- Uploaded to: SVG Repo, www.svgrepo.com, Generator: SVG Repo Mixer Tools -->

<svg
   width="582.92224"
   height="631.07208"
   viewBox="0 0 17.487667 18.932162"
   fill="none"
   version="1.1"
   id="svg6"
   sodipodi:docname="medal-ribbons-star-svgrepo-com.svg"
   xmlns:inkscape="http://www.inkscape.org/namespaces/inkscape"
   xmlns:sodipodi="http://sodipodi.sourceforge.net/DTD/sodipodi-0.dtd"
   xmlns="http://www.w3.org/2000/svg"
   xmlns:svg="http://www.w3.org/2000/svg">
  <defs
     id="defs10" />
  <sodipodi:namedview
     id="namedview8"
     pagecolor="#ffffff"
     bordercolor="#000000"
     borderopacity="0.25"
     inkscape:showpageshadow="2"
     inkscape:pageopacity="0.0"
     inkscape:pagecheckerboard="0"
     inkscape:deskcolor="#d1d1d1"
     showgrid="false" />
  <g
     inkscape:groupmode="layer"
     id="layer2"
     inkscape:label="Layer 2"
     transform="translate(-3.2561684,-1.9999999)">
    <g
       id="g6098">
      <rect
         style="opacity:1;fill:#ffefb9;fill-opacity:1;stroke:none;stroke-width:0.99999;stroke-linecap:round;stroke-linejoin:round;stroke-miterlimit:10015.6;stroke-dasharray:none;stroke-dashoffset:157.597;paint-order:markers fill stroke"
         id="rect3803"
         width="6.9370923"
         height="6.9084201"
         x="8.5314541"
         y="5.7060933" />
      <path
         opacity="0.5"
         d="M 12,16 8.7023067,19.9049 C 8.2300348,20.4642 7.9938988,20.7438 7.7939273,20.8406 7.3382425,21.0611 6.8327614,20.8724 6.593058,20.3923 6.4878609,20.1816 6.4550803,19.8016 6.389519,19.0416 6.3525064,18.6125 6.3339957,18.3979 6.2778166,18.2182 6.1520453,17.8159 5.8877629,17.503 5.5480125,17.354 5.3962633,17.2875 5.2150736,17.2656 4.8527204,17.2217 h -2.63e-5 C 4.2108793,17.1441 3.8899718,17.1053 3.7120523,16.9807 3.3066357,16.6969 3.1472881,16.0983 3.333488,15.5587 3.4151992,15.3219 3.6513351,15.0423 4.1236071,14.4831 L 6.2778166,11.9321 7.3604868,10.6939 12,16 l 4.639478,-5.3061 1.082661,1.2382 2.154219,2.551 c 0.472341,0.5592 0.708425,0.8388 0.79018,1.0756 0.186156,0.5396 0.02684,1.1382 -0.378608,1.422 -0.177937,0.1246 -0.498836,0.1634 -1.140633,0.241 -0.362345,0.0439 -0.543517,0.0658 -0.69531,0.1323 -0.339785,0.149 -0.604024,0.4619 -0.729848,0.8642 -0.05614,0.1797 -0.07467,0.3943 -0.111658,0.8234 v 0 c -0.06558,0.76 -0.09837,1.14 -0.203557,1.3507 -0.239668,0.4801 -0.745149,0.6688 -1.200878,0.4483 -0.199971,-0.0968 -0.436055,-0.3764 -0.908309,-0.9357 z"
         fill="#1C274C"
         id="path2"
         style="opacity:1;fill:#a269bb;fill-opacity:1;stroke-width:0.935075;stroke-dasharray:none" />
      <path
         fill-rule="evenodd"
         clip-rule="evenodd"
         d="m 12,16 c 3.866,0 7,-3.134 7,-7 C 19,5.13401 15.866,2 12,2 8.13401,2 5,5.13401 5,9 c 0,3.866 3.13401,7 7,7 z M 12,6 c -0.2841,0 -0.4741,0.34084 -0.8541,1.02251 l -0.0983,0.17636 c -0.1079,0.19371 -0.1619,0.29057 -0.2461,0.35447 -0.0842,0.06391 -0.189,0.08763 -0.3987,0.13507 l -0.1909,0.0432 C 9.47396,7.89857 9.10501,7.98205 9.01723,8.26432 8.92945,8.54659 9.18097,8.84072 9.68403,9.42898 l 0.13015,0.15219 c 0.14295,0.16716 0.21442,0.25074 0.24662,0.35414 0.0321,0.10339 0.0213,0.21489 -3e-4,0.43799 l -0.0197,0.203 c -0.07604,0.7849 -0.11406,1.1773 0.1157,1.3518 0.2299,0.1744 0.5753,0.0154 1.2662,-0.3027 l 0.1787,-0.0823 c 0.1964,-0.0904 0.2945,-0.1356 0.3986,-0.1356 0.1041,0 0.2022,0.0452 0.3986,0.1356 l 0.1787,0.0823 c 0.6909,0.3181 1.0363,0.4771 1.2662,0.3027 0.2298,-0.1745 0.1917,-0.5669 0.1157,-1.3518 l -0.0197,-0.203 c -0.0216,-0.2231 -0.0324,-0.3346 -3e-4,-0.43799 0.0322,-0.1034 0.1037,-0.18698 0.2466,-0.35413 L 14.316,9.42898 C 14.819,8.84072 15.0706,8.54659 14.9828,8.26432 14.895,7.98205 14.526,7.89857 13.7881,7.73161 L 13.5972,7.68841 C 13.3875,7.64097 13.2827,7.61725 13.1985,7.55334 13.1143,7.48944 13.0603,7.39258 12.9524,7.19887 L 12.8541,7.02251 C 12.4741,6.34084 12.2841,6 12,6 Z"
         fill="#1C274C"
         id="path4"
         style="fill:#ffd365;fill-opacity:1" />
    </g>
  </g>
</svg>
