<?xml version="1.0" encoding="UTF-8" standalone="no"?>
<!-- Created with Inkscape (http://www.inkscape.org/) -->

<svg
   width="381mm"
   height="42.409584mm"
   viewBox="0 0 381 42.409584"
   version="1.1"
   id="svg1"
   inkscape:export-filename="wave_02.svg"
   inkscape:export-xdpi="85.879997"
   inkscape:export-ydpi="85.879997"
   sodipodi:docname="wave_02.svg"
   inkscape:version="1.3.2 (091e20e, 2023-11-25, custom)"
   xmlns:inkscape="http://www.inkscape.org/namespaces/inkscape"
   xmlns:sodipodi="http://sodipodi.sourceforge.net/DTD/sodipodi-0.dtd"
   xmlns="http://www.w3.org/2000/svg"
   xmlns:svg="http://www.w3.org/2000/svg">
  <sodipodi:namedview
     id="namedview1"
     pagecolor="#ffffff"
     bordercolor="#000000"
     borderopacity="0.25"
     inkscape:showpageshadow="2"
     inkscape:pageopacity="0.0"
     inkscape:pagecheckerboard="0"
     inkscape:deskcolor="#d1d1d1"
     inkscape:document-units="mm"
     inkscape:zoom="0.55193613"
     inkscape:cx="817.12353"
     inkscape:cy="145.85021"
     inkscape:window-width="1920"
     inkscape:window-height="1009"
     inkscape:window-x="1912"
     inkscape:window-y="-8"
     inkscape:window-maximized="1"
     inkscape:current-layer="layer1" />
  <defs
     id="defs1" />
  <g
     inkscape:label="Layer 1"
     inkscape:groupmode="layer"
     id="layer1"
     transform="translate(3.6833974e-6,-37.668305)">
    <path
       fill="#0891b2"
       fill-opacity="1"
       d="M -3.6833974e-6,46.134976 12.699996,50.368306 c 12.7,4.23334 38.1,12.69999 63.5,19.76437 C 101.6,77.091226 127,82.912056 152.4,78.599356 c 25.4,-4.15396 50.8,-18.44147 76.2,-22.59543 25.4,-4.3127 50.8,1.50812 76.2,0 25.4,-1.40228 50.8,-9.86895 63.5,-14.10228 l 12.7,-4.23334 v 0 h -12.7 c -12.7,0 -38.1,0 -63.5,0 -25.4,0 -50.8,0 -76.2,0 -25.4,0 -50.8,0 -76.2,0 -25.4,0 -50.8,0 -76.200004,0 -25.4,0 -50.8,0 -63.5,0 H -3.6833974e-6 Z"
       id="path1"
       inkscape:export-filename="wave_02.svg"
       inkscape:export-xdpi="96"
       inkscape:export-ydpi="96"
       style="fill:#0891b2;fill-opacity:1;stroke-width:0.264583" />
    <rect
       style="fill:#0891b2;fill-opacity:1;stroke-width:4.1032;stroke-linejoin:round"
       id="rect1"
       width="380.9624"
       height="39.429169"
       x="0.026668679"
       y="-39.22438"
       ry="0"
       transform="scale(1,-1)" />
  </g>
</svg>
