<?xml version="1.0" encoding="UTF-8" standalone="no"?>
<!-- Created with Inkscape (http://www.inkscape.org/) -->

<svg
   width="381mm"
   height="42.409584mm"
   viewBox="0 0 381 42.409584"
   version="1.1"
   id="svg1"
   inkscape:export-filename="wave_02.svg"
   inkscape:export-xdpi="85.879997"
   inkscape:export-ydpi="85.879997"
   sodipodi:docname="wave_02.svg"
   inkscape:version="1.3.2 (091e20e, 2023-11-25, custom)"
   xmlns:inkscape="http://www.inkscape.org/namespaces/inkscape"
   xmlns:sodipodi="http://sodipodi.sourceforge.net/DTD/sodipodi-0.dtd"
   xmlns="http://www.w3.org/2000/svg"
   xmlns:svg="http://www.w3.org/2000/svg">
  <sodipodi:namedview
     id="namedview1"
     pagecolor="#ffffff"
     bordercolor="#000000"
     borderopacity="0.25"
     inkscape:showpageshadow="2"
     inkscape:pageopacity="0.0"
     inkscape:pagecheckerboard="0"
     inkscape:deskcolor="#d1d1d1"
     inkscape:document-units="mm"
     inkscape:zoom="0.39027778"
     inkscape:cx="786.61922"
     inkscape:cy="-47.402135"
     inkscape:window-width="1920"
     inkscape:window-height="1009"
     inkscape:window-x="1912"
     inkscape:window-y="-8"
     inkscape:window-maximized="1"
     inkscape:current-layer="layer1" />
  <defs
     id="defs1" />
  <g
     inkscape:label="Layer 1"
     inkscape:groupmode="layer"
     id="layer1"
     transform="translate(3.6833974e-6,-37.668305)">
    <path
       fill="#0891b2"
       fill-opacity="1"
       d="m 381,46.134976 -12.7,4.23333 c -12.7,4.23334 -38.1,12.69999 -63.5,19.76437 -25.4,6.95855 -50.8,12.77938 -76.2,8.46668 -25.4,-4.15396 -50.8,-18.44147 -76.2,-22.59543 -25.4,-4.3127 -50.8,1.50812 -76.200003,0 -25.4,-1.40228 -50.800001,-9.86895 -63.500001,-14.10228 L -3.6833974e-6,37.668306 v 0 H 12.699996 c 12.7,0 38.100001,0 63.500001,0 25.400003,0 50.800003,0 76.200003,0 25.4,0 50.8,0 76.2,0 25.4,0 50.8,0 76.2,0 25.4,0 50.8,0 63.5,0 H 381 Z"
       id="path1"
       inkscape:export-filename="wave_02.svg"
       inkscape:export-xdpi="96"
       inkscape:export-ydpi="96"
       style="fill:#0891b2;fill-opacity:1;stroke-width:0.264583" />
    <rect
       style="fill:#0891b2;fill-opacity:1;stroke-width:4.04036;stroke-linejoin:round"
       id="rect1"
       width="380.9624"
       height="38.230736"
       x="-380.97333"
       y="-38.025948"
       ry="0"
       transform="scale(-1)" />
  </g>
</svg>
