<?xml version="1.0" encoding="UTF-8" standalone="no"?>
<!-- Created with Inkscape (http://www.inkscape.org/) -->

<svg
   width="381mm"
   height="80.282677mm"
   viewBox="0 0 381 80.282677"
   version="1.1"
   id="svg1"
   inkscape:export-filename="bitmap.svg"
   inkscape:export-xdpi="85.879997"
   inkscape:export-ydpi="85.879997"
   xmlns:inkscape="http://www.inkscape.org/namespaces/inkscape"
   xmlns:sodipodi="http://sodipodi.sourceforge.net/DTD/sodipodi-0.dtd"
   xmlns="http://www.w3.org/2000/svg"
   xmlns:svg="http://www.w3.org/2000/svg">
  <sodipodi:namedview
     id="namedview1"
     pagecolor="#ffffff"
     bordercolor="#000000"
     borderopacity="0.25"
     inkscape:showpageshadow="2"
     inkscape:pageopacity="0.0"
     inkscape:pagecheckerboard="0"
     inkscape:deskcolor="#d1d1d1"
     inkscape:document-units="mm" />
  <defs
     id="defs1" />
  <g
     inkscape:label="Layer 1"
     inkscape:groupmode="layer"
     id="layer1"
     transform="translate(-2.9999999e-6,0.2047897)">
    <path
       fill="#0891b2"
       fill-opacity="1"
       d="m 3e-6,33.73812 12.7,-4.23333 c 12.7,-4.23334 38.1,-12.699995 63.5,-19.7643757 C 101.6,2.7818723 127,-3.0389577 152.4,1.2737423 c 25.4,4.15396 50.8,18.4414627 76.2,22.5954227 25.4,4.312705 50.8,-1.50812 76.2,0 25.4,1.402285 50.8,9.868955 63.5,14.102285 l 12.7,4.23334 v 0 h -12.7 c -12.7,0 -38.1,0 -63.5,0 -25.4,0 -50.8,0 -76.2,0 -25.4,0 -50.8,0 -76.2,0 -25.4,0 -50.8,0 -76.199997,0 -25.4,0 -50.8,0 -63.5,0 H 3e-6 Z"
       id="path1"
       inkscape:export-filename="path1.svg"
       inkscape:export-xdpi="96"
       inkscape:export-ydpi="96"
       style="fill:#0891b2;fill-opacity:1;stroke-width:0.264583" />
    <rect
       style="fill:#0891b2;fill-opacity:1;stroke-width:4.04036;stroke-linejoin:round"
       id="rect1"
       width="380.9624"
       height="38.230736"
       x="0.026675468"
       y="41.847153"
       ry="0" />
  </g>
</svg>
