<?xml version="1.0" encoding="UTF-8" standalone="no"?>
<!-- Uploaded to: SVG Repo, www.svgrepo.com, Generator: SVG Repo Mixer Tools -->

<svg
   width="591.13458"
   height="475.94672"
   viewBox="0 0 756.65227 609.2118"
   class="icon"
   version="1.1"
   id="svg10"
   xmlns="http://www.w3.org/2000/svg"
   xmlns:svg="http://www.w3.org/2000/svg">
  <defs
     id="defs14" />
  <g
     id="layer2"
     style="display:inline;fill:#ffffff"
     transform="translate(-131.58154,-166.50114)">
    <rect
       style="fill:#ffffff;fill-opacity:1;stroke-width:6.90838;stroke-linecap:round;stroke-linejoin:round;stroke-miterlimit:10015.6;stroke-dashoffset:157.597;paint-order:markers fill stroke"
       id="rect959"
       width="721.77155"
       height="467.80347"
       x="150.2077"
       y="244.86896"
       ry="40.402901" />
    <path
       id="rect961"
       style="fill:#ffffff;stroke-width:6.90838;stroke-linecap:round;stroke-linejoin:round;stroke-miterlimit:10015.6;stroke-dashoffset:157.597;paint-order:markers fill stroke"
       d="m 217.60205,180.07257 204.70252,14.07349 43.65096,-18.11369 47.40009,43.33608 91.05003,-52.86729 192.70031,13.57141 v 87.23914 H 217.60205 Z" />
  </g>
  <g
     id="layer1"
     style="display:inline"
     transform="translate(-131.58154,-166.50114)">
    <g
       id="g1074">
      <path
         d="m 271.85282,285.27186 h 167.91719 v 28.66879 H 271.85282 Z m 0,63.48089 h 167.91719 v 27.6449 H 271.85282 Z m 0,62.457 h 167.91719 v 28.66879 H 271.85282 Z M 580.0423,285.27186 h 167.91719 v 28.66879 H 580.0423 Z m 0,63.48089 h 167.91719 v 27.6449 H 580.0423 Z m 0,62.457 h 167.91719 v 28.66879 H 580.0423 Z"
         fill="#FF7415"
         id="path4"
         style="fill:#0891b2;fill-opacity:1" />
      <path
         d="m 439.77001,544.64249 c 0,7.73648 -6.2713,14.00777 -14.00777,14.00777 H 285.86059 c -7.73648,0 -14.00777,-6.2713 -14.00777,-14.00777 v -55.94305 c 0,-7.73648 6.27129,-14.00777 14.00777,-14.00777 h 139.90165 c 7.73647,0 14.00777,6.27129 14.00777,14.00777 z m 308.18948,0 c 0,7.73648 -6.2713,14.00777 -14.00777,14.00777 H 594.05007 c -7.73647,0 -14.00777,-6.2713 -14.00777,-14.00777 v -55.94305 c 0,-7.73648 6.2713,-14.00777 14.00777,-14.00777 h 139.90165 c 7.73648,0 14.00777,6.27129 14.00777,14.00777 z"
         fill="#e0e0e0"
         id="path8" />
      <path
         d="m 842.5368,229.98205 h -17.78488 v -5.02113 c 0,-30.89472 -21.35825,-58.45976 -52.25297,-58.45976 h -168.0933 c -38.92812,0 -72.90063,21.32958 -91.05003,52.86729 -18.14939,-31.53771 -52.1219,-52.86729 -91.05002,-52.86729 H 254.21332 c -30.89472,0 -59.15088,27.56402 -59.15088,58.45976 v 5.02113 h -10.88697 c -27.03058,0 -52.59392,27.11863 -52.59392,58.01334 v 378.20788 c 0,38.61686 33.41552,67.53036 70.10338,67.53036 h 255.64062 c 23.17257,0 42.02332,20.47771 42.02332,41.9793 h 28.01555 c 0,-21.50159 18.84973,-41.9793 42.02333,-41.9793 h 255.64061 c 36.68786,0 63.20547,-28.9135 63.20547,-67.53036 V 287.99539 c -0.002,-30.89471 -18.66748,-58.01334 -45.69703,-58.01334 z M 604.40565,194.14606 h 168.09228 c 15.45043,0 24.60806,15.3634 24.60806,30.81486 v 399.21903 c 0,15.45043 -9.15763,25.59508 -24.60806,25.59508 H 604.40565 c -30.45342,0 -59.17545,15.52313 -80.67704,36.29264 V 273.98762 c 0,-42.48101 38.19501,-79.84156 80.67704,-79.84156 z m -381.69933,30.81486 c 0,-15.45043 16.05555,-30.81486 31.50598,-30.81486 h 168.09227 c 42.48101,0 73.77913,37.35953 73.77913,79.84156 V 685.9018 C 481.74931,665.18451 452.71397,649.77503 422.30457,649.77503 H 254.21332 c -15.45043,0 -31.50598,-10.14363 -31.50598,-25.59508 V 224.96092 Z m -21.02241,481.12781 c -21.23743,0 -42.45848,-16.71288 -42.45848,-39.88546 V 287.99539 c 0,-15.18422 13.56034,-30.36844 24.94901,-30.36844 h 10.88698 v 366.553 c 0,30.89471 28.25616,53.23999 59.15088,53.23999 h 168.09227 c 26.73365,0 50.31168,14.0262 64.13208,34.7609 -8.87913,-4.0812 -18.71867,-6.09211 -29.11315,-6.09211 z m 657.87908,-39.88546 c 0,23.17258 -13.29924,39.88546 -34.53667,39.88546 H 569.3857 c -10.39448,0 -20.23402,2.01193 -29.11418,6.09211 13.82041,-20.7347 37.39946,-34.7609 64.13311,-34.7609 H 772.4969 c 30.89472,0 52.25297,-22.34528 52.25297,-53.23999 v -366.553 h 17.78489 c 11.38765,0 17.02721,15.18422 17.02721,30.36844 v 378.20788 z"
         fill="#262626"
         id="path6" />
    </g>
  </g>
</svg>
