<svg version="1.1" xmlns="http://www.w3.org/2000/svg" viewBox="0 0 849.6938824278725 273.7442111186819" width="849.6938824278725" height="273.7442111186819">
  <!-- svg-source:excalidraw -->
  
  <defs>
    <style class="style-fonts">
      @font-face {
        font-family: "Virgil";
        src: url("https://excalidraw.com/Virgil.woff2");
      }
      @font-face {
        font-family: "Cascadia";
        src: url("https://excalidraw.com/Cascadia.woff2");
      }
      @font-face {
        font-family: "Assistant";
        src: url("https://excalidraw.com/Assistant-Regular.woff2");
      }
    </style>
    
  </defs>
  <rect x="0" y="0" width="849.6938824278725" height="273.7442111186819" fill="#ffffff"></rect><g transform="translate(486.5286191071775 142.5109007345706) rotate(0 55.525001525878906 17.5)"><text x="0" y="24.528" font-family="Virgil, Segoe UI Emoji" font-size="28px" fill="#1e1e1e" text-anchor="start" style="white-space: pre;" direction="ltr" dominant-baseline="alphabetic">Backend</text></g><g stroke-linecap="round" transform="translate(462.5286191071775 119.51090073457061) rotate(0 80 40)"><path d="M20 0 C60.45 1.51, 103.52 2.69, 140 0 M20 0 C46.69 -0.13, 74.4 1.29, 140 0 M140 0 C153.9 0.62, 161.48 5.07, 160 20 M140 0 C154.01 0.84, 159.14 8.55, 160 20 M160 20 C160.07 32.13, 158.77 45.13, 160 60 M160 20 C160.7 33.4, 159.78 45.57, 160 60 M160 60 C159.12 71.79, 154.91 78.79, 140 80 M160 60 C158.82 74.59, 152.94 81.14, 140 80 M140 80 C93.35 78.86, 49.56 78.89, 20 80 M140 80 C102.67 78.22, 65.73 78.93, 20 80 M20 80 C6.85 78.04, 0.42 71.53, 0 60 M20 80 C7.15 79.08, 1.1 73.16, 0 60 M0 60 C1.21 49.57, 1.21 41.68, 0 20 M0 60 C0.7 44.64, 0.29 28.48, 0 20 M0 20 C-0.06 5.73, 6.8 0.23, 20 0 M0 20 C-1.38 8.69, 7.36 1.34, 20 0" stroke="#1e1e1e" stroke-width="2" fill="none"></path></g><g transform="translate(269.26430989500943 139.51090062340472) rotate(0 58.42499923706055 17.5)"><text x="0" y="24.528" font-family="Virgil, Segoe UI Emoji" font-size="28px" fill="#1e1e1e" text-anchor="start" style="white-space: pre;" direction="ltr" dominant-baseline="alphabetic">Frontend</text></g><g stroke-linecap="round" transform="translate(246.26430989500943 119.51090062340471) rotate(0 83 37)"><path d="M18.5 0 C52.59 -2.09, 83.2 1.31, 147.5 0 M18.5 0 C69.81 -0.38, 121.36 -0.79, 147.5 0 M147.5 0 C160.92 1.1, 164.21 4.79, 166 18.5 M147.5 0 C158.91 -1.29, 167.19 7.4, 166 18.5 M166 18.5 C164.2 28.07, 166.94 36, 166 55.5 M166 18.5 C164.99 31.14, 166.6 43.44, 166 55.5 M166 55.5 C164.46 66.76, 161.67 74.62, 147.5 74 M166 55.5 C168.27 66.1, 157.63 74.5, 147.5 74 M147.5 74 C105.6 72.56, 65.81 71.9, 18.5 74 M147.5 74 C102.25 74.44, 57.57 73.97, 18.5 74 M18.5 74 C6.96 75.06, 0.35 69.48, 0 55.5 M18.5 74 C8.36 74.59, 0.52 69.72, 0 55.5 M0 55.5 C-2.23 44.37, -0.59 31.34, 0 18.5 M0 55.5 C0.1 44.24, 0.62 32.55, 0 18.5 M0 18.5 C1.16 6.11, 4.53 0.28, 18.5 0 M0 18.5 C-1.94 7.81, 5.42 1.08, 18.5 0" stroke="#1e1e1e" stroke-width="2" fill="none"></path></g><g transform="translate(692.3753768792678 154.40416037931604) rotate(0 58.68333435058594 12.5)"><text x="0" y="17.52" font-family="Virgil, Segoe UI Emoji" font-size="20px" fill="#1e1e1e" text-anchor="start" style="white-space: pre;" direction="ltr" dominant-baseline="alphabetic">Auth Server</text></g><g stroke-linecap="round" transform="translate(673.6938824278725 138.40416037931604) rotate(0 83 26.5)"><path d="M13.25 0 C43.12 -0.58, 68.48 0.32, 152.75 0 M13.25 0 C41.69 0.64, 70.71 0.14, 152.75 0 M152.75 0 C161.29 0.3, 164.29 5.2, 166 13.25 M152.75 0 C161.38 -2, 163.83 2.48, 166 13.25 M166 13.25 C166.59 17.63, 164.72 25.86, 166 39.75 M166 13.25 C166.93 19.58, 166.91 27.9, 166 39.75 M166 39.75 C166.01 47.04, 161.9 53.37, 152.75 53 M166 39.75 C163.91 50.23, 160.8 54.39, 152.75 53 M152.75 53 C112.24 51.29, 72.28 53.42, 13.25 53 M152.75 53 C115.91 53.66, 79.6 52.44, 13.25 53 M13.25 53 C3.78 51.29, 0.82 46.92, 0 39.75 M13.25 53 C3.63 53.89, 0.07 49.26, 0 39.75 M0 39.75 C1.28 34.21, -1.67 27.57, 0 13.25 M0 39.75 C0.41 31.13, 0.08 21.36, 0 13.25 M0 13.25 C0.07 4.56, 6.23 -0.02, 13.25 0 M0 13.25 C-2.11 4.79, 3.68 -1.11, 13.25 0" stroke="#1e1e1e" stroke-width="2" fill="none"></path></g><g transform="translate(734.7748426078606 236.7442111186819) rotate(0 25.65833282470703 10)"><text x="0" y="14.016" font-family="Virgil, Segoe UI Emoji" font-size="16px" fill="#1e1e1e" text-anchor="start" style="white-space: pre;" direction="ltr" dominant-baseline="alphabetic">Google</text></g><g stroke-linecap="round" transform="translate(726.7748426078606 228.7442111186819) rotate(0 35.5 17.5)"><path d="M8.75 0 C24.42 -0.06, 34.62 0.28, 62.25 0 M8.75 0 C22.66 -0.75, 37.31 -0.19, 62.25 0 M62.25 0 C69.07 1.45, 70 4.27, 71 8.75 M62.25 0 C66.69 -1.68, 72.42 2.31, 71 8.75 M71 8.75 C71.56 14.49, 72.76 17.54, 71 26.25 M71 8.75 C71.44 12.96, 70.26 18.02, 71 26.25 M71 26.25 C71.36 32.04, 68.54 35.6, 62.25 35 M71 26.25 C70.62 29.79, 66.99 32.78, 62.25 35 M62.25 35 C48.82 33.44, 38.72 35.94, 8.75 35 M62.25 35 C46.62 34.43, 30.16 35.05, 8.75 35 M8.75 35 C3.46 36.03, 0.74 32.21, 0 26.25 M8.75 35 C3.53 33.69, 0.67 29.91, 0 26.25 M0 26.25 C0.51 19.87, -1.15 13.72, 0 8.75 M0 26.25 C-0.34 19.27, 0.03 14.13, 0 8.75 M0 8.75 C-0.28 4.68, 2.59 0.24, 8.75 0 M0 8.75 C-1.56 4.99, 1.04 -0.13, 8.75 0" stroke="#1e1e1e" stroke-width="2" fill="none"></path></g><g transform="translate(266.89064628209064 22) rotate(0 55.54999923706055 12.5)"><text x="0" y="17.52" font-family="Virgil, Segoe UI Emoji" font-size="20px" fill="#1e1e1e" text-anchor="start" style="white-space: pre;" direction="ltr" dominant-baseline="alphabetic">OpenLibrary</text></g><g stroke-linecap="round" transform="translate(249.89064628209064 10) rotate(0 75.5 24.5)"><path d="M12.25 0 C62.83 -0.78, 112.3 -0.34, 138.75 0 M12.25 0 C56.55 -0.87, 100.48 0.14, 138.75 0 M138.75 0 C145.66 -1.11, 152.34 4.91, 151 12.25 M138.75 0 C147.57 -0.58, 149.39 4.71, 151 12.25 M151 12.25 C151.39 21.64, 150.17 29.96, 151 36.75 M151 12.25 C150.33 17.44, 151.02 22.77, 151 36.75 M151 36.75 C151.44 46.59, 145.39 48.07, 138.75 49 M151 36.75 C150.59 44.51, 147.49 50.5, 138.75 49 M138.75 49 C94.16 50.28, 46.25 48.37, 12.25 49 M138.75 49 C107.42 50.34, 75.73 50.39, 12.25 49 M12.25 49 C3.72 47.57, -1.58 45.45, 0 36.75 M12.25 49 C4.17 47.25, 1.06 45.01, 0 36.75 M0 36.75 C-2.04 29.48, -1.01 25.47, 0 12.25 M0 36.75 C-0.75 30.47, -0.63 23.11, 0 12.25 M0 12.25 C-1.62 3.8, 5.65 0.9, 12.25 0 M0 12.25 C-1.9 4.52, 4.45 -0.95, 12.25 0" stroke="#1e1e1e" stroke-width="2" fill="none"></path></g><g transform="translate(28 148.52426708756445) rotate(0 74.30833435058594 12.5)"><text x="0" y="17.52" font-family="Virgil, Segoe UI Emoji" font-size="20px" fill="#1e1e1e" text-anchor="start" style="white-space: pre;" direction="ltr" dominant-baseline="alphabetic">MastodonShare</text></g><g stroke-linecap="round" transform="translate(10 135.52426708756445) rotate(0 93 24)"><path d="M12 0 C53.32 -2.05, 97.98 -3.01, 174 0 M12 0 C61.39 1.3, 113.19 1.9, 174 0 M174 0 C180.35 0.38, 186.32 3.17, 186 12 M174 0 C183.53 -1.38, 186.51 5.56, 186 12 M186 12 C186.72 19.14, 187.11 22.6, 186 36 M186 12 C186.83 21.89, 186.57 29.94, 186 36 M186 36 C186.05 43.94, 180.13 48.13, 174 48 M186 36 C186.56 42.48, 183.72 47.97, 174 48 M174 48 C126.25 47.15, 74.79 50.04, 12 48 M174 48 C132.04 47.75, 89.04 48.25, 12 48 M12 48 C3.09 47.67, -1.89 43.48, 0 36 M12 48 C4.17 45.92, -1.91 41.75, 0 36 M0 36 C0.22 30.87, -0.84 23.08, 0 12 M0 36 C-0.72 31.17, 0.53 24.55, 0 12 M0 12 C-0.88 5.66, 3.64 -1.59, 12 0 M0 12 C-0.84 2.63, 3.2 0.58, 12 0" stroke="#1e1e1e" stroke-width="2" fill="none"></path></g><g stroke-linecap="round"><g transform="translate(237.8844221099813 154.3629857346854) rotate(0 -17.983095649318955 0.9301601197923617)"><path d="M0.17 -0.13 C-5.79 0.07, -29.76 1.31, -35.77 1.59 M-0.41 -0.68 C-6.42 -0.43, -30.14 1.71, -36.09 2.16" stroke="#1e1e1e" stroke-width="2" fill="none"></path></g><g transform="translate(237.8844221099813 154.3629857346854) rotate(0 -17.983095649318955 0.9301601197923617)"><path d="M-19.74 -5.38 C-24.79 -2.79, -29.86 -0.67, -36.09 2.16 M-19.74 -5.38 C-23.44 -3.66, -27.35 -2.04, -36.09 2.16" stroke="#1e1e1e" stroke-width="2" fill="none"></path></g><g transform="translate(237.8844221099813 154.3629857346854) rotate(0 -17.983095649318955 0.9301601197923617)"><path d="M-18.72 6.9 C-24.12 5.85, -29.49 4.31, -36.09 2.16 M-18.72 6.9 C-22.63 5.61, -26.79 4.24, -36.09 2.16" stroke="#1e1e1e" stroke-width="2" fill="none"></path></g></g><mask></mask><g stroke-linecap="round"><g transform="translate(327.7999003565758 108.47508649159576) rotate(0 0.31005337326416793 -20.463522635431872)"><path d="M0.18 0.47 C0.24 -6.37, 0.24 -34.47, 0.34 -41.44 M-0.39 0.24 C-0.15 -6.51, 1.28 -34.14, 1.43 -41" stroke="#1e1e1e" stroke-width="2" fill="none"></path></g><g transform="translate(327.7999003565758 108.47508649159576) rotate(0 0.31005337326416793 -20.463522635431872)"><path d="M7.68 -21.51 C6.74 -27.85, 3.07 -32.89, 1.43 -41 M7.68 -21.51 C6.17 -25.64, 4.82 -30.58, 1.43 -41" stroke="#1e1e1e" stroke-width="2" fill="none"></path></g><g transform="translate(327.7999003565758 108.47508649159576) rotate(0 0.31005337326416793 -20.463522635431872)"><path d="M-6.31 -22.06 C-3.06 -28.26, -2.53 -33.13, 1.43 -41 M-6.31 -22.06 C-4.69 -26.03, -2.9 -30.85, 1.43 -41" stroke="#1e1e1e" stroke-width="2" fill="none"></path></g></g><mask></mask><g stroke-linecap="round"><g transform="translate(633.7273238811767 159.5836558189156) rotate(0 17.052935529526394 -0.47325740767197644)"><path d="M-0.36 -0.18 C5.41 -0.38, 28.74 -1.22, 34.57 -1.34 M0.46 -0.75 C6.21 -0.88, 28.7 -0.92, 34.38 -0.84" stroke="#1e1e1e" stroke-width="2" fill="none"></path></g><g transform="translate(633.7273238811767 159.5836558189156) rotate(0 17.052935529526394 -0.47325740767197644)"><path d="M18.32 4.93 C22.73 4.02, 27.07 2.41, 34.38 -0.84 M18.32 4.93 C23.42 2.98, 28.44 1.31, 34.38 -0.84" stroke="#1e1e1e" stroke-width="2" fill="none"></path></g><g transform="translate(633.7273238811767 159.5836558189156) rotate(0 17.052935529526394 -0.47325740767197644)"><path d="M18.37 -6.74 C22.75 -4.25, 27.07 -2.47, 34.38 -0.84 M18.37 -6.74 C23.4 -5.13, 28.4 -3.25, 34.38 -0.84" stroke="#1e1e1e" stroke-width="2" fill="none"></path></g></g><mask></mask><g stroke-linecap="round"><g transform="translate(770.1326196121108 199.42971076596442) rotate(0 0.701072679552226 10.444769071187693)"><path d="M-0.41 0.38 C-0.1 3.91, 1.05 17.52, 1.35 20.91 M0.38 0.09 C0.65 3.75, 0.78 18.1, 0.89 21.62" stroke="#1e1e1e" stroke-width="2" fill="none"></path></g><g transform="translate(770.1326196121108 199.42971076596442) rotate(0 0.701072679552226 10.444769071187693)"><path d="M-2.88 11.85 C-1.76 13.85, -1.32 15.91, 0.89 21.62 M-2.88 11.85 C-1.86 14.42, -1.08 16.91, 0.89 21.62" stroke="#1e1e1e" stroke-width="2" fill="none"></path></g><g transform="translate(770.1326196121108 199.42971076596442) rotate(0 0.701072679552226 10.444769071187693)"><path d="M4.28 11.72 C3.9 13.71, 2.86 15.81, 0.89 21.62 M4.28 11.72 C3.4 14.33, 2.26 16.84, 0.89 21.62" stroke="#1e1e1e" stroke-width="2" fill="none"></path></g></g><mask></mask></svg>